<?xml version="1.0" encoding="UTF-8" standalone="no"?>
<!-- Created with Inkscape (http://www.inkscape.org/) -->

<svg
   width="1000"
   height="1000"
   viewBox="0 0 264.58332 264.58333"
   version="1.1"
   id="svg1"
   inkscape:version="1.3.1 (91b66b0783, 2023-11-16)"
   sodipodi:docname="sprites.svg"
   inkscape:export-filename="sprites.png"
   inkscape:export-xdpi="96"
   inkscape:export-ydpi="96"
   xmlns:inkscape="http://www.inkscape.org/namespaces/inkscape"
   xmlns:sodipodi="http://sodipodi.sourceforge.net/DTD/sodipodi-0.dtd"
   xmlns="http://www.w3.org/2000/svg"
   xmlns:svg="http://www.w3.org/2000/svg">
  <sodipodi:namedview
     id="namedview1"
     pagecolor="#505050"
     bordercolor="#ffffff"
     borderopacity="1"
     inkscape:showpageshadow="0"
     inkscape:pageopacity="0"
     inkscape:pagecheckerboard="1"
     inkscape:deskcolor="#505050"
     inkscape:document-units="px"
     inkscape:zoom="1.9547619"
     inkscape:cx="196.18758"
     inkscape:cy="63.690621"
     inkscape:window-width="1920"
     inkscape:window-height="1009"
     inkscape:window-x="-8"
     inkscape:window-y="-8"
     inkscape:window-maximized="1"
     inkscape:current-layer="layer1" />
  <defs
     id="defs1" />
  <g
     inkscape:label="Layer 1"
     inkscape:groupmode="layer"
     id="layer1">
    <rect
       style="fill:#808080;stroke-width:0.264579"
       id="rect2"
       width="52.916664"
       height="52.915226"
       x="0"
       y="0.0014389429" />
    <rect
       style="fill:#ffffff;fill-opacity:1;stroke-width:0.120381;stroke-dasharray:none"
       id="rect1"
       width="48.106014"
       height="48.04768"
       x="2.405302"
       y="2.4024341" />
    <path
       id="path5"
       style="fill:none;fill-opacity:1;stroke:#000000;stroke-width:0.120191;stroke-dasharray:none;stroke-opacity:1"
       d="M 26.458306,2.4024466 2.4053028,26.426273 26.458311,50.450123 50.511312,26.426273 Z M 2.4053028,50.450114 50.511312,2.402438 m -48.1060092,0 48.1060192,48.047685 M 38.484809,2.4024466 V 50.450161 M 26.458306,2.4024466 V 50.450142 M 2.4053028,14.414355 H 50.511312 M 2.4053028,26.426273 H 50.511312 M 2.4053028,38.438198 H 50.511312 M 14.431803,2.402438 v 48.047676" />
    <rect
       style="fill:none;fill-opacity:1;stroke:#000000;stroke-width:0.120191;stroke-dasharray:none;stroke-opacity:1"
       id="rect5"
       width="48.106018"
       height="48.047684"
       x="2.405302"
       y="2.4024341" />
    <path
       d="M 2.4053021,0 C 1.0768428,-5.3396561e-5 -1.0212513e-4,1.0755857 -4.8725128e-5,2.4024342 -1.0212513e-4,3.7292827 1.0768428,4.8049217 2.4053021,4.8048683 3.7337616,4.8049217 4.8107066,3.7292827 4.8106532,2.4024342 4.8107066,1.0755857 3.7337616,-5.3396561e-5 2.4053021,0 Z"
       style="fill:#ff0000;stroke-width:0.480759"
       id="path76" />
    <path
       d="m 14.438221,0 c -1.328457,-5.3396561e-5 -2.405403,1.0755852 -2.40535,2.4024331 -5.3e-5,1.326848 1.076893,2.4024865 2.40535,2.4024331 1.328459,5.34e-5 2.405405,-1.0755851 2.405352,-2.4024331 C 16.843626,1.0755852 15.76668,-5.3396561e-5 14.438221,0 Z"
       style="fill:#ff0000;stroke-width:0.480759"
       id="path75" />
    <path
       d="m 26.458283,0 c -1.328457,-5.3396561e-5 -2.405404,1.0755852 -2.40535,2.4024331 -5.4e-5,1.326848 1.076893,2.4024865 2.40535,2.4024331 1.328458,5.34e-5 2.405405,-1.0755851 2.405351,-2.4024331 C 28.863688,1.0755852 27.786741,-5.3396561e-5 26.458283,0 Z"
       style="fill:#ff0000;stroke-width:0.480759"
       id="path74" />
    <path
       d="m 38.484775,0 c -1.32846,-5.3396561e-5 -2.405406,1.0755861 -2.40535,2.402435 -5.6e-5,1.326849 1.07689,2.4024885 2.40535,2.402435 1.328461,5.35e-5 2.405405,-1.075586 2.405351,-2.402435 C 40.89018,1.0755861 39.813236,-5.3396561e-5 38.484775,0 Z"
       style="fill:#ff0000;stroke-width:0.48076"
       id="path73" />
    <path
       d="m 50.511265,0 c -1.32846,-5.3396561e-5 -2.405403,1.0755861 -2.40535,2.402435 -5.3e-5,1.326849 1.07689,2.4024885 2.40535,2.402435 1.328461,5.35e-5 2.405405,-1.075586 2.405352,-2.402435 C 52.91667,1.0755861 51.839726,-5.3396561e-5 50.511265,0 Z"
       style="fill:#ff0000;stroke-width:0.48076"
       id="path72" />
    <path
       d="m 50.511265,12.043025 c -1.32846,-5.4e-5 -2.405403,1.075586 -2.40535,2.402436 -5.3e-5,1.326846 1.07689,2.402487 2.40535,2.402434 1.328461,5.3e-5 2.405405,-1.075588 2.405352,-2.402434 5.3e-5,-1.32685 -1.076891,-2.40249 -2.405352,-2.402436 z"
       style="fill:#ff0000;stroke-width:0.48076"
       id="path71" />
    <path
       d="m 14.431794,24.023814 c -1.32846,-5.3e-5 -2.405405,1.075587 -2.405352,2.402434 -5.3e-5,1.326849 1.076892,2.402489 2.405352,2.402435 1.328459,5.4e-5 2.405405,-1.075586 2.40535,-2.402435 5.5e-5,-1.326847 -1.076891,-2.402487 -2.40535,-2.402434 z"
       style="fill:#ff0000;stroke-width:0.480759"
       id="path70" />
    <path
       d="m 38.484775,12.011907 c -1.32846,-5.3e-5 -2.405406,1.075587 -2.40535,2.402435 -5.6e-5,1.326848 1.07689,2.402489 2.40535,2.402436 1.328461,5.3e-5 2.405405,-1.075588 2.405351,-2.402436 5.4e-5,-1.326848 -1.07689,-2.402488 -2.405351,-2.402435 z"
       style="fill:#ff0000;stroke-width:0.48076"
       id="path69" />
    <path
       d="M 2.4053021,24.023814 C 1.0768428,24.023761 -1.0212513e-4,25.099401 -4.8725128e-5,26.426248 -1.0212513e-4,27.753097 1.0768428,28.828737 2.4053021,28.828683 c 1.3284595,5.4e-5 2.4054045,-1.075586 2.4053511,-2.402435 5.34e-5,-1.326847 -1.0768916,-2.402487 -2.4053511,-2.402434 z"
       style="fill:#ff0000;stroke-width:0.480759"
       id="path68" />
    <path
       d="m 26.458283,12.011907 c -1.328457,-5.3e-5 -2.405404,1.075586 -2.40535,2.402433 -5.4e-5,1.326847 1.076893,2.402487 2.40535,2.402434 1.328458,5.3e-5 2.405405,-1.075587 2.405351,-2.402434 5.4e-5,-1.326847 -1.076893,-2.402486 -2.405351,-2.402433 z"
       style="fill:#ff0000;stroke-width:0.480759"
       id="path67" />
    <path
       d="m 14.431794,12.251958 c -1.32846,-5.3e-5 -2.405405,1.075583 -2.405352,2.402433 -5.3e-5,1.32685 1.076892,2.402487 2.405352,2.402432 1.328459,5.5e-5 2.405405,-1.075582 2.40535,-2.402432 5.5e-5,-1.32685 -1.076891,-2.402486 -2.40535,-2.402433 z"
       style="fill:#ff0000;stroke-width:0.480759"
       id="path66" />
    <path
       d="M 2.4053021,12.011907 C 1.0768428,12.011854 -1.0212513e-4,13.087493 -4.8725128e-5,14.414341 -1.0212513e-4,15.741189 1.0768428,16.816829 2.4053021,16.816776 c 1.3284595,5.3e-5 2.4054045,-1.075587 2.4053511,-2.402435 5.34e-5,-1.326848 -1.0768916,-2.402487 -2.4053511,-2.402434 z"
       style="fill:#ff0000;stroke-width:0.480759"
       id="path65" />
    <path
       d="m 50.511265,48.110358 c -1.32846,-5.3e-5 -2.405403,1.075585 -2.40535,2.402437 -5.3e-5,1.326846 1.07689,2.402485 2.40535,2.402432 1.328461,5.3e-5 2.405405,-1.075586 2.405352,-2.402432 5.3e-5,-1.326852 -1.076891,-2.40249 -2.405352,-2.402437 z"
       style="fill:#00ff00;stroke-width:0.48076"
       id="path64" />
    <path
       d="m 38.478346,48.110358 c -1.32846,-5.3e-5 -2.405405,1.075584 -2.405351,2.402436 -5.4e-5,1.326846 1.076891,2.402484 2.405351,2.402431 1.328459,5.3e-5 2.405404,-1.075585 2.405351,-2.402431 5.3e-5,-1.326852 -1.076892,-2.402489 -2.405351,-2.402436 z"
       style="fill:#00ff00;stroke-width:0.480759"
       id="path63" />
    <path
       d="m 26.458283,48.110358 c -1.328457,-5.3e-5 -2.405404,1.075584 -2.40535,2.402435 -5.4e-5,1.326845 1.076893,2.402483 2.40535,2.40243 1.328458,5.3e-5 2.405405,-1.075585 2.405351,-2.40243 5.4e-5,-1.326851 -1.076893,-2.402488 -2.405351,-2.402435 z"
       style="fill:#00ff00;stroke-width:0.480759"
       id="path62" />
    <path
       d="m 14.431794,48.110358 c -1.32846,-5.3e-5 -2.405405,1.075584 -2.405352,2.402436 -5.3e-5,1.326846 1.076892,2.402484 2.405352,2.402431 1.328459,5.3e-5 2.405405,-1.075585 2.40535,-2.402431 5.5e-5,-1.326852 -1.076891,-2.402489 -2.40535,-2.402436 z"
       style="fill:#00ff00;stroke-width:0.480759"
       id="path61" />
    <path
       d="M 2.4053021,48.110358 C 1.0768428,48.110305 -1.0212513e-4,49.185942 -4.8725128e-5,50.512794 -1.0212513e-4,51.83964 1.0768428,52.915278 2.4053021,52.915225 c 1.3284595,5.3e-5 2.4054045,-1.075585 2.4053511,-2.402431 5.34e-5,-1.326852 -1.0768916,-2.402489 -2.4053511,-2.402436 z"
       style="fill:#00ff00;stroke-width:0.480759"
       id="path60" />
    <path
       d="M 2.4053021,36.066839 C 1.0768428,36.066786 -1.0212513e-4,37.142424 -4.8725128e-5,38.469274 -1.0212513e-4,39.796121 1.0768428,40.871759 2.4053021,40.871706 c 1.3284595,5.3e-5 2.4054045,-1.075585 2.4053511,-2.402432 5.34e-5,-1.32685 -1.0768916,-2.402488 -2.4053511,-2.402435 z"
       style="fill:#00ff00;stroke-width:0.480759"
       id="path59" />
    <path
       d="m 38.484775,24.086543 c -1.32846,-5.2e-5 -2.405406,1.075587 -2.40535,2.402437 -5.6e-5,1.326846 1.07689,2.402487 2.40535,2.402434 1.328461,5.3e-5 2.405405,-1.075588 2.405351,-2.402434 5.4e-5,-1.32685 -1.07689,-2.402489 -2.405351,-2.402437 z"
       style="fill:#00ff00;stroke-width:0.48076"
       id="path58" />
    <path
       d="m 14.431794,36.098451 c -1.32846,-5.4e-5 -2.405405,1.075585 -2.405352,2.402434 -5.3e-5,1.326849 1.076892,2.402486 2.405352,2.402432 1.328459,5.4e-5 2.405405,-1.075583 2.40535,-2.402432 5.5e-5,-1.326849 -1.076891,-2.402488 -2.40535,-2.402434 z"
       style="fill:#00ff00;stroke-width:0.480759"
       id="path57" />
    <path
       d="m 50.511265,24.086543 c -1.32846,-5.2e-5 -2.405403,1.075587 -2.40535,2.402437 -5.3e-5,1.326846 1.07689,2.402487 2.40535,2.402434 1.328461,5.3e-5 2.405405,-1.075588 2.405352,-2.402434 5.3e-5,-1.32685 -1.076891,-2.402489 -2.405352,-2.402437 z"
       style="fill:#00ff00;stroke-width:0.48076"
       id="path56" />
    <path
       d="m 26.458283,36.098451 c -1.328457,-5.4e-5 -2.405404,1.075585 -2.40535,2.402433 -5.4e-5,1.326848 1.076893,2.402485 2.40535,2.402431 1.328458,5.4e-5 2.405405,-1.075583 2.405351,-2.402431 5.4e-5,-1.326848 -1.076893,-2.402487 -2.405351,-2.402433 z"
       style="fill:#00ff00;stroke-width:0.480759"
       id="path55" />
    <path
       d="m 38.484775,35.857906 c -1.32846,-5.4e-5 -2.405406,1.075587 -2.40535,2.402435 -5.6e-5,1.326848 1.07689,2.402489 2.40535,2.402436 1.328461,5.3e-5 2.405405,-1.075588 2.405351,-2.402436 5.4e-5,-1.326848 -1.07689,-2.402489 -2.405351,-2.402435 z"
       style="fill:#00ff00;stroke-width:0.48076"
       id="path54" />
    <path
       d="m 50.511265,36.098451 a 2.4052551,2.4023384 0 0 0 -2.40535,2.402435 2.4052551,2.4023384 0 0 0 2.40535,2.402433 2.4052551,2.4023384 0 0 0 2.405352,-2.402433 2.4052551,2.4023384 0 0 0 -2.405352,-2.402435 z"
       style="fill:#00ff00;stroke-width:0.48076"
       id="path53" />
    <circle
       style="fill:#ff0000;fill-opacity:1;stroke-width:0.330728"
       id="path1-87"
       cx="137.58333"
       cy="5.2916665"
       r="5.2916665" />
    <circle
       style="fill:#00ff00;fill-opacity:1;stroke-width:0.330728"
       id="path1-496"
       cx="150.81248"
       cy="5.2916665"
       r="5.2916665" />
    <circle
       style="fill:#800000;stroke-width:0.529166"
       id="path2"
       cx="165.36458"
       cy="6.614583"
       r="6.614583" />
    <circle
       style="fill:#ff0000;fill-opacity:1;stroke-width:0.330728"
       id="path1-87-9"
       cx="165.36458"
       cy="6.614583"
       r="5.2916665" />
    <circle
       style="fill:#008000;stroke-width:0.529168"
       id="path3"
       cx="178.59375"
       cy="6.614583"
       r="6.614583" />
    <circle
       style="fill:#00ff00;fill-opacity:1;stroke-width:0.330731"
       id="path1-496-4"
       cx="178.59375"
       cy="6.614583"
       r="5.291666" />
    <path
       id="path4"
       style="fill:#808080;fill-opacity:1;stroke-width:0.529165"
       d="M 191.82291 0 A 6.614583 6.614583 0 0 0 185.20833 6.6145831 A 6.614583 6.614583 0 0 0 191.82291 13.229166 A 6.614583 6.614583 0 0 0 198.43749 6.6145831 A 6.614583 6.614583 0 0 0 191.82291 0 z M 191.82291 1.3229166 A 5.291666 5.291666 0 0 1 197.11458 6.6145831 A 5.291666 5.291666 0 0 1 191.82291 11.90625 A 5.291666 5.291666 0 0 1 186.53124 6.6145831 A 5.291666 5.291666 0 0 1 191.82291 1.3229166 z " />
    <rect
       style="fill:#808080;stroke-width:0.264579"
       id="rect2-2"
       width="52.916664"
       height="52.915226"
       x="66.145874"
       y="0.0014428729" />
    <rect
       style="fill:#ffffff;fill-opacity:1;stroke-width:0.120381;stroke-dasharray:none"
       id="rect1-6"
       width="48.106014"
       height="48.04768"
       x="68.551178"
       y="2.4024382" />
    <path
       id="path5-0"
       style="fill:none;fill-opacity:1;stroke:#000000;stroke-width:0.120191;stroke-dasharray:none;stroke-opacity:1"
       d="M 92.604186,2.402451 68.551183,26.426277 92.604191,50.450127 116.6572,26.426277 Z M 68.551183,50.450118 116.6572,2.402442 m -48.106017,0 48.106027,48.047685 M 104.63069,2.402451 V 50.450165 M 92.604186,2.402451 V 50.450146 M 68.551183,14.414359 H 116.6572 M 68.551183,26.426277 H 116.6572 M 68.551183,38.438202 H 116.6572 M 80.577683,2.402442 v 48.047676" />
    <rect
       style="fill:none;fill-opacity:1;stroke:#000000;stroke-width:0.120191;stroke-dasharray:none;stroke-opacity:1"
       id="rect5-1"
       width="48.106018"
       height="48.047684"
       x="68.551178"
       y="2.4024382" />
    <path
       d="M 68.551182,3.9999625e-6 C 67.222723,-4.9000037e-5 66.145778,1.07559 66.145831,2.402438 c -5.3e-5,1.326849 1.076892,2.402488 2.405351,2.402434 1.32846,5.4e-5 2.405405,-1.075585 2.405351,-2.402434 C 70.956587,1.07559 69.879642,-4.9000037e-5 68.551182,3.9999625e-6 Z"
       style="fill:#ff0000;stroke-width:0.480759"
       id="path76-1" />
    <path
       d="M 80.584101,3.9999625e-6 C 79.255644,-4.9000037e-5 78.178698,1.075589 78.178751,2.402437 c -5.3e-5,1.326848 1.076893,2.402487 2.40535,2.402433 1.328459,5.4e-5 2.405405,-1.075585 2.405352,-2.402433 C 82.989506,1.075589 81.91256,-4.9000037e-5 80.584101,3.9999625e-6 Z"
       style="fill:#ff0000;stroke-width:0.480759"
       id="path75-7" />
    <path
       d="M 92.604163,3.9999625e-6 C 91.275706,-4.9000037e-5 90.198759,1.075589 90.198813,2.402437 c -5.4e-5,1.326848 1.076893,2.402487 2.40535,2.402433 1.328458,5.4e-5 2.405402,-1.075585 2.405352,-2.402433 5e-5,-1.326848 -1.076894,-2.402486000037 -2.405352,-2.4024330000375 z"
       style="fill:#ff0000;stroke-width:0.480759"
       id="path74-1" />
    <path
       d="M 104.63066,3.9999625e-6 C 103.3022,-4.9000037e-5 102.22525,1.07559 102.22531,2.402439 c -6e-5,1.326849 1.07689,2.402489 2.40535,2.402435 1.32846,5.4e-5 2.4054,-1.075586 2.40535,-2.402435 5e-5,-1.326849 -1.07689,-2.402488000037 -2.40535,-2.4024350000375 z"
       style="fill:#ff0000;stroke-width:0.48076"
       id="path73-6" />
    <path
       d="M 116.65715,3.9999625e-6 C 115.32869,-4.9000037e-5 114.25175,1.07559 114.2518,2.402439 c -5e-5,1.326849 1.07689,2.402489 2.40535,2.402435 1.32846,5.4e-5 2.4054,-1.075586 2.40535,-2.402435 5e-5,-1.326849 -1.07689,-2.402488000037 -2.40535,-2.4024350000375 z"
       style="fill:#ff0000;stroke-width:0.48076"
       id="path72-0" />
    <path
       d="m 116.65715,12.043029 c -1.32846,-5.4e-5 -2.4054,1.075586 -2.40535,2.402436 -5e-5,1.326846 1.07689,2.402487 2.40535,2.402434 1.32846,5.3e-5 2.4054,-1.075588 2.40535,-2.402434 5e-5,-1.32685 -1.07689,-2.40249 -2.40535,-2.402436 z"
       style="fill:#ff0000;stroke-width:0.48076"
       id="path71-3" />
    <path
       d="m 80.577674,24.023818 c -1.32846,-5.3e-5 -2.405405,1.075587 -2.405352,2.402434 -5.3e-5,1.326849 1.076892,2.402489 2.405352,2.402435 1.328459,5.4e-5 2.405405,-1.075586 2.40535,-2.402435 5.5e-5,-1.326847 -1.076891,-2.402487 -2.40535,-2.402434 z"
       style="fill:#00ff00;stroke-width:0.480759;fill-opacity:1"
       id="path70-8" />
    <path
       d="m 104.63066,12.011911 c -1.32846,-5.3e-5 -2.40541,1.075587 -2.40535,2.402435 -6e-5,1.326848 1.07689,2.402489 2.40535,2.402436 1.32846,5.3e-5 2.4054,-1.075588 2.40535,-2.402436 5e-5,-1.326848 -1.07689,-2.402488 -2.40535,-2.402435 z"
       style="fill:#ff0000;stroke-width:0.48076"
       id="path69-3" />
    <path
       d="m 68.551182,24.023818 c -1.328459,-5.3e-5 -2.405404,1.075587 -2.405351,2.402434 -5.3e-5,1.326849 1.076892,2.402489 2.405351,2.402435 1.32846,5.4e-5 2.405405,-1.075586 2.405351,-2.402435 5.4e-5,-1.326847 -1.076891,-2.402487 -2.405351,-2.402434 z"
       style="fill:#00ff00;stroke-width:0.480759;fill-opacity:1"
       id="path68-1" />
    <path
       d="m 92.604163,12.011911 c -1.328457,-5.3e-5 -2.405404,1.075586 -2.40535,2.402433 -5.4e-5,1.326847 1.076893,2.402487 2.40535,2.402434 1.328458,5.3e-5 2.405402,-1.075587 2.405352,-2.402434 5e-5,-1.326847 -1.076894,-2.402486 -2.405352,-2.402433 z"
       style="fill:#ff0000;stroke-width:0.480759"
       id="path67-6" />
    <path
       d="m 80.577674,12.251962 c -1.32846,-5.3e-5 -2.405405,1.075583 -2.405352,2.402433 -5.3e-5,1.32685 1.076892,2.402487 2.405352,2.402432 1.328459,5.5e-5 2.405405,-1.075582 2.40535,-2.402432 5.5e-5,-1.32685 -1.076891,-2.402486 -2.40535,-2.402433 z"
       style="fill:#ff0000;stroke-width:0.480759"
       id="path66-3" />
    <path
       d="m 68.551182,12.011911 c -1.328459,-5.3e-5 -2.405404,1.075586 -2.405351,2.402434 -5.3e-5,1.326848 1.076892,2.402488 2.405351,2.402435 1.32846,5.3e-5 2.405405,-1.075587 2.405351,-2.402435 5.4e-5,-1.326848 -1.076891,-2.402487 -2.405351,-2.402434 z"
       style="fill:#ff0000;stroke-width:0.480759"
       id="path65-0" />
    <path
       d="m 116.65715,48.110362 c -1.32846,-5.3e-5 -2.4054,1.075585 -2.40535,2.402437 -5e-5,1.326846 1.07689,2.402485 2.40535,2.402432 1.32846,5.3e-5 2.4054,-1.075586 2.40535,-2.402432 5e-5,-1.326852 -1.07689,-2.40249 -2.40535,-2.402437 z"
       style="fill:#00ff00;stroke-width:0.48076"
       id="path64-5" />
    <path
       d="m 104.62423,48.110362 c -1.32846,-5.3e-5 -2.4054,1.075584 -2.40535,2.402436 -5e-5,1.326846 1.07689,2.402484 2.40535,2.402431 1.32846,5.3e-5 2.4054,-1.075585 2.40535,-2.402431 5e-5,-1.326852 -1.07689,-2.402489 -2.40535,-2.402436 z"
       style="fill:#00ff00;stroke-width:0.480759"
       id="path63-6" />
    <path
       d="m 92.604163,48.110362 c -1.328457,-5.3e-5 -2.405404,1.075584 -2.40535,2.402435 -5.4e-5,1.326845 1.076893,2.402483 2.40535,2.40243 1.328458,5.3e-5 2.405402,-1.075585 2.405352,-2.40243 5e-5,-1.326851 -1.076894,-2.402488 -2.405352,-2.402435 z"
       style="fill:#00ff00;stroke-width:0.480759"
       id="path62-3" />
    <path
       d="m 80.577674,48.110362 c -1.32846,-5.3e-5 -2.405405,1.075584 -2.405352,2.402436 -5.3e-5,1.326846 1.076892,2.402484 2.405352,2.402431 1.328459,5.3e-5 2.405405,-1.075585 2.40535,-2.402431 5.5e-5,-1.326852 -1.076891,-2.402489 -2.40535,-2.402436 z"
       style="fill:#00ff00;stroke-width:0.480759"
       id="path61-9" />
    <path
       d="m 68.551182,48.110362 c -1.328459,-5.3e-5 -2.405404,1.075584 -2.405351,2.402436 -5.3e-5,1.326846 1.076892,2.402484 2.405351,2.402431 1.32846,5.3e-5 2.405405,-1.075585 2.405351,-2.402431 5.4e-5,-1.326852 -1.076891,-2.402489 -2.405351,-2.402436 z"
       style="fill:#00ff00;stroke-width:0.480759"
       id="path60-2" />
    <path
       d="m 68.551182,36.066843 c -1.328459,-5.3e-5 -2.405404,1.075585 -2.405351,2.402435 -5.3e-5,1.326847 1.076892,2.402485 2.405351,2.402432 1.32846,5.3e-5 2.405405,-1.075585 2.405351,-2.402432 5.4e-5,-1.32685 -1.076891,-2.402488 -2.405351,-2.402435 z"
       style="fill:#00ff00;stroke-width:0.480759"
       id="path59-8" />
    <path
       d="m 104.63066,24.086547 c -1.32846,-5.2e-5 -2.40541,1.075587 -2.40535,2.402437 -6e-5,1.326846 1.07689,2.402487 2.40535,2.402434 1.32846,5.3e-5 2.4054,-1.075588 2.40535,-2.402434 5e-5,-1.32685 -1.07689,-2.402489 -2.40535,-2.402437 z"
       style="fill:#ff0000;stroke-width:0.48076;fill-opacity:1"
       id="path58-9" />
    <path
       d="m 80.577674,36.098455 c -1.32846,-5.4e-5 -2.405405,1.075585 -2.405352,2.402434 -5.3e-5,1.326849 1.076892,2.402486 2.405352,2.402432 1.328459,5.4e-5 2.405405,-1.075583 2.40535,-2.402432 5.5e-5,-1.326849 -1.076891,-2.402488 -2.40535,-2.402434 z"
       style="fill:#00ff00;stroke-width:0.480759"
       id="path57-9" />
    <path
       d="m 116.65715,24.086547 c -1.32846,-5.2e-5 -2.4054,1.075587 -2.40535,2.402437 -5e-5,1.326846 1.07689,2.402487 2.40535,2.402434 1.32846,5.3e-5 2.4054,-1.075588 2.40535,-2.402434 5e-5,-1.32685 -1.07689,-2.402489 -2.40535,-2.402437 z"
       style="fill:#ff0000;stroke-width:0.48076;fill-opacity:1"
       id="path56-3" />
    <path
       d="m 92.604163,36.098455 c -1.328457,-5.4e-5 -2.405404,1.075585 -2.40535,2.402433 -5.4e-5,1.326848 1.076893,2.402485 2.40535,2.402431 1.328458,5.4e-5 2.405402,-1.075583 2.405352,-2.402431 5e-5,-1.326848 -1.076894,-2.402487 -2.405352,-2.402433 z"
       style="fill:#00ff00;stroke-width:0.480759"
       id="path55-5" />
    <path
       d="m 104.63066,35.85791 c -1.32846,-5.4e-5 -2.40541,1.075587 -2.40535,2.402435 -6e-5,1.326848 1.07689,2.402489 2.40535,2.402436 1.32846,5.3e-5 2.4054,-1.075588 2.40535,-2.402436 5e-5,-1.326848 -1.07689,-2.402489 -2.40535,-2.402435 z"
       style="fill:#00ff00;stroke-width:0.48076"
       id="path54-3" />
    <path
       d="m 116.65715,36.098455 a 2.4052551,2.4023384 0 0 0 -2.40535,2.402435 2.4052551,2.4023384 0 0 0 2.40535,2.402433 2.4052551,2.4023384 0 0 0 2.40535,-2.402433 2.4052551,2.4023384 0 0 0 -2.40535,-2.402435 z"
       style="fill:#00ff00;stroke-width:0.48076"
       id="path53-7" />
  </g>
</svg>
